# xmcd
#
# Track frame offsets:
#	150
#	9057
#	18425
#	58490
#	97675
#	132770
#	167067
#
# Disc length: 2316 seconds
#
# Revision: 1
# Processed by: cddbd v1.5.1PL0 Copyright (c) Steve Scherf et al.
# Submitted via: CDex 1.50Beta5
#
DISCID=49090a07
DTITLE=Various Artist - 爆れつハンター?ザ・マンスリー・コレクション 1st Season
DYEAR=1900
DGENRE=Anime
TTITLE0=あかほりさとる大先生の華麗なる野望・復活編
TTITLE1=FAI・FAI・TU!<Short Version>
TTITLE2=第4話「春だ! 桜だ! お花見だ!!」
TTITLE3=第5話「花を愛でるソーサラー」
TTITLE4=第6話「桜の木の下には……」
TTITLE5=第7話「男って、つくづく……」
TTITLE6=あかほりさとる大先生の華麗なる野望・邂逅編
EXTD=
EXTT0=
EXTT1=
EXTT2=
EXTT3=
EXTT4=
EXTT5=
EXTT6=
PLAYORDER=
